<mxfile host="65bd71144e">
    <diagram id="LXnfodDsmKik3XlqBKHs" name="Page-1">
        <mxGraphModel dx="513" dy="580" grid="1" gridSize="10" guides="1" tooltips="1" connect="1" arrows="1" fold="1" page="1" pageScale="1" pageWidth="850" pageHeight="1100" math="0" shadow="0">
            <root>
                <mxCell id="0"/>
                <mxCell id="1" parent="0"/>
                <mxCell id="2" value="" style="whiteSpace=wrap;html=1;" vertex="1" parent="1">
                    <mxGeometry x="120" y="40" width="10" height="640" as="geometry"/>
                </mxCell>
                <mxCell id="3" value="" style="whiteSpace=wrap;html=1;" vertex="1" parent="1">
                    <mxGeometry x="280" y="40" width="10" height="640" as="geometry"/>
                </mxCell>
                <mxCell id="4" value="" style="whiteSpace=wrap;html=1;" vertex="1" parent="1">
                    <mxGeometry x="440" y="40" width="10" height="400" as="geometry"/>
                </mxCell>
                <mxCell id="5" value="Front-end" style="text;html=1;resizable=0;autosize=1;align=center;verticalAlign=middle;points=[];fillColor=#f5f5f5;strokeColor=#666666;rounded=0;fontColor=#333333;" vertex="1" parent="1">
                    <mxGeometry x="90" y="10" width="70" height="20" as="geometry"/>
                </mxCell>
                <mxCell id="6" value="WEB API" style="text;html=1;resizable=0;autosize=1;align=center;verticalAlign=middle;points=[];fillColor=#f5f5f5;strokeColor=#666666;rounded=0;fontColor=#333333;" vertex="1" parent="1">
                    <mxGeometry x="255" y="10" width="60" height="20" as="geometry"/>
                </mxCell>
                <mxCell id="7" value="" style="whiteSpace=wrap;html=1;" vertex="1" parent="1">
                    <mxGeometry x="440" y="490" width="10" height="190" as="geometry"/>
                </mxCell>
                <mxCell id="8" value="Postgres" style="text;html=1;resizable=0;autosize=1;align=center;verticalAlign=middle;points=[];fillColor=#f5f5f5;strokeColor=#666666;rounded=0;fontColor=#333333;" vertex="1" parent="1">
                    <mxGeometry x="415" y="10" width="60" height="20" as="geometry"/>
                </mxCell>
                <mxCell id="9" value="Kafka" style="text;html=1;resizable=0;autosize=1;align=center;verticalAlign=middle;points=[];fillColor=#f5f5f5;strokeColor=#666666;rounded=0;fontColor=#333333;" vertex="1" parent="1">
                    <mxGeometry x="425" y="460" width="50" height="20" as="geometry"/>
                </mxCell>
                <mxCell id="11" value="Request ticker names" style="text;html=1;resizable=0;autosize=1;align=center;verticalAlign=middle;points=[];fillColor=#f5f5f5;strokeColor=#666666;rounded=0;fontColor=#333333;" vertex="1" parent="1">
                    <mxGeometry x="140" y="40" width="130" height="20" as="geometry"/>
                </mxCell>
                <mxCell id="12" style="edgeStyle=none;html=1;exitX=1.2;exitY=0.102;exitDx=0;exitDy=0;entryX=-0.2;entryY=0.174;entryDx=0;entryDy=0;exitPerimeter=0;entryPerimeter=0;" edge="1" parent="1">
                    <mxGeometry relative="1" as="geometry">
                        <mxPoint x="294" y="90" as="sourcePoint"/>
                        <mxPoint x="440" y="121.67999999999995" as="targetPoint"/>
                    </mxGeometry>
                </mxCell>
                <mxCell id="15" style="edgeStyle=none;html=1;exitX=1.2;exitY=0.102;exitDx=0;exitDy=0;entryX=-0.2;entryY=0.174;entryDx=0;entryDy=0;exitPerimeter=0;entryPerimeter=0;" edge="1" parent="1">
                    <mxGeometry relative="1" as="geometry">
                        <mxPoint x="130" y="59.99999999999997" as="sourcePoint"/>
                        <mxPoint x="276" y="91.67999999999992" as="targetPoint"/>
                    </mxGeometry>
                </mxCell>
                <mxCell id="17" value="&lt;span style=&quot;color: rgba(0 , 0 , 0 , 0) ; font-family: monospace ; font-size: 0px&quot;&gt;%3CmxGraphModel%3E%3Croot%3E%3CmxCell%20id%3D%220%22%2F%3E%3CmxCell%20id%3D%221%22%20parent%3D%220%22%2F%3E%3CmxCell%20id%3D%222%22%20value%3D%22Request%20ticker%20names%22%20style%3D%22text%3Bhtml%3D1%3Bresizable%3D0%3Bautosize%3D1%3Balign%3Dcenter%3BverticalAlign%3Dmiddle%3Bpoints%3D%5B%5D%3BfillColor%3Dnone%3BstrokeColor%3Dnone%3Brounded%3D0%3B%22%20vertex%3D%221%22%20parent%3D%221%22%3E%3CmxGeometry%20x%3D%22140%22%20y%3D%2240%22%20width%3D%22130%22%20height%3D%2220%22%20as%3D%22geometry%22%2F%3E%3C%2FmxCell%3E%3C%2Froot%3E%3C%2FmxGraphModel%3E&lt;/span&gt;" style="text;html=1;resizable=0;autosize=1;align=center;verticalAlign=middle;points=[];fillColor=none;strokeColor=none;rounded=0;" vertex="1" parent="1">
                    <mxGeometry x="365" y="70" width="20" height="20" as="geometry"/>
                </mxCell>
                <mxCell id="18" style="edgeStyle=none;html=1;exitX=1.2;exitY=0.102;exitDx=0;exitDy=0;exitPerimeter=0;" edge="1" parent="1">
                    <mxGeometry relative="1" as="geometry">
                        <mxPoint x="440" y="150" as="sourcePoint"/>
                        <mxPoint x="298" y="190" as="targetPoint"/>
                    </mxGeometry>
                </mxCell>
                <mxCell id="20" style="edgeStyle=none;html=1;exitX=1.2;exitY=0.102;exitDx=0;exitDy=0;exitPerimeter=0;" edge="1" parent="1">
                    <mxGeometry relative="1" as="geometry">
                        <mxPoint x="276" y="190" as="sourcePoint"/>
                        <mxPoint x="134" y="230" as="targetPoint"/>
                    </mxGeometry>
                </mxCell>
                <mxCell id="21" value="Ticker names" style="text;html=1;resizable=0;autosize=1;align=center;verticalAlign=middle;points=[];fillColor=#f5f5f5;strokeColor=#666666;rounded=0;fontColor=#333333;" vertex="1" parent="1">
                    <mxGeometry x="310" y="140" width="90" height="20" as="geometry"/>
                </mxCell>
                <mxCell id="26" style="edgeStyle=none;html=1;exitX=1.2;exitY=0.102;exitDx=0;exitDy=0;exitPerimeter=0;" edge="1" parent="1">
                    <mxGeometry relative="1" as="geometry">
                        <mxPoint x="440" y="335" as="sourcePoint"/>
                        <mxPoint x="298" y="375" as="targetPoint"/>
                    </mxGeometry>
                </mxCell>
                <mxCell id="27" style="edgeStyle=none;html=1;exitX=1.2;exitY=0.102;exitDx=0;exitDy=0;exitPerimeter=0;" edge="1" parent="1">
                    <mxGeometry relative="1" as="geometry">
                        <mxPoint x="278" y="380" as="sourcePoint"/>
                        <mxPoint x="136" y="420" as="targetPoint"/>
                    </mxGeometry>
                </mxCell>
                <mxCell id="28" value="Request older values&lt;br&gt;&amp;nbsp;of given ticker" style="text;html=1;resizable=0;autosize=1;align=center;verticalAlign=middle;points=[];fillColor=none;strokeColor=none;rounded=0;" vertex="1" parent="1">
                    <mxGeometry x="160" y="235" width="130" height="30" as="geometry"/>
                </mxCell>
                <mxCell id="30" value="Request ticker names" style="text;html=1;resizable=0;autosize=1;align=center;verticalAlign=middle;points=[];fillColor=#f5f5f5;strokeColor=#666666;rounded=0;fontColor=#333333;" vertex="1" parent="1">
                    <mxGeometry x="310" y="70" width="130" height="20" as="geometry"/>
                </mxCell>
                <mxCell id="31" value="Ticker names" style="text;html=1;resizable=0;autosize=1;align=center;verticalAlign=middle;points=[];fillColor=#f5f5f5;strokeColor=#666666;rounded=0;fontColor=#333333;" vertex="1" parent="1">
                    <mxGeometry x="150" y="180" width="90" height="20" as="geometry"/>
                </mxCell>
                <mxCell id="32" value="Request older values&lt;br&gt;&amp;nbsp;of given ticker" style="text;html=1;resizable=0;autosize=1;align=center;verticalAlign=middle;points=[];fillColor=none;strokeColor=none;rounded=0;" vertex="1" parent="1">
                    <mxGeometry x="300" y="265" width="130" height="30" as="geometry"/>
                </mxCell>
                <mxCell id="33" value="Old values of given ticker" style="text;html=1;resizable=0;autosize=1;align=center;verticalAlign=middle;points=[];fillColor=none;strokeColor=none;rounded=0;" vertex="1" parent="1">
                    <mxGeometry x="290" y="320" width="150" height="20" as="geometry"/>
                </mxCell>
                <mxCell id="34" value="Old values of given ticker" style="text;html=1;resizable=0;autosize=1;align=center;verticalAlign=middle;points=[];fillColor=#f5f5f5;strokeColor=#666666;rounded=0;fontColor=#333333;" vertex="1" parent="1">
                    <mxGeometry x="130" y="360" width="150" height="20" as="geometry"/>
                </mxCell>
                <mxCell id="36" style="edgeStyle=none;html=1;exitX=1.2;exitY=0.102;exitDx=0;exitDy=0;entryX=-0.2;entryY=0.174;entryDx=0;entryDy=0;exitPerimeter=0;entryPerimeter=0;" edge="1" parent="1">
                    <mxGeometry relative="1" as="geometry">
                        <mxPoint x="134" y="448.32" as="sourcePoint"/>
                        <mxPoint x="280" y="479.99999999999994" as="targetPoint"/>
                    </mxGeometry>
                </mxCell>
                <mxCell id="37" style="edgeStyle=none;html=1;exitX=1.2;exitY=0.102;exitDx=0;exitDy=0;entryX=-0.2;entryY=0.174;entryDx=0;entryDy=0;exitPerimeter=0;entryPerimeter=0;" edge="1" parent="1">
                    <mxGeometry relative="1" as="geometry">
                        <mxPoint x="292" y="480" as="sourcePoint"/>
                        <mxPoint x="438" y="511.67999999999995" as="targetPoint"/>
                    </mxGeometry>
                </mxCell>
                <mxCell id="38" value="Open websocket" style="text;html=1;resizable=0;autosize=1;align=center;verticalAlign=middle;points=[];fillColor=#f5f5f5;strokeColor=#666666;rounded=0;fontColor=#333333;" vertex="1" parent="1">
                    <mxGeometry x="175" y="440" width="100" height="20" as="geometry"/>
                </mxCell>
                <mxCell id="39" value="Establish kafka &lt;br&gt;consumer" style="text;html=1;resizable=0;autosize=1;align=center;verticalAlign=middle;points=[];fillColor=#f5f5f5;strokeColor=#666666;rounded=0;fontColor=#333333;" vertex="1" parent="1">
                    <mxGeometry x="315" y="455" width="100" height="30" as="geometry"/>
                </mxCell>
                <mxCell id="40" style="edgeStyle=none;html=1;exitX=1.2;exitY=0.102;exitDx=0;exitDy=0;exitPerimeter=0;" edge="1" parent="1">
                    <mxGeometry relative="1" as="geometry">
                        <mxPoint x="436" y="530" as="sourcePoint"/>
                        <mxPoint x="294" y="570" as="targetPoint"/>
                    </mxGeometry>
                </mxCell>
                <mxCell id="41" style="edgeStyle=none;html=1;exitX=1.2;exitY=0.102;exitDx=0;exitDy=0;exitPerimeter=0;" edge="1" parent="1">
                    <mxGeometry relative="1" as="geometry">
                        <mxPoint x="275" y="580" as="sourcePoint"/>
                        <mxPoint x="133" y="620" as="targetPoint"/>
                    </mxGeometry>
                </mxCell>
                <mxCell id="42" value="Real time values&lt;br&gt;of given ticker" style="text;html=1;resizable=0;autosize=1;align=center;verticalAlign=middle;points=[];fillColor=#f5f5f5;strokeColor=#666666;rounded=0;fontColor=#333333;" vertex="1" parent="1">
                    <mxGeometry x="290" y="520" width="100" height="30" as="geometry"/>
                </mxCell>
                <mxCell id="43" value="Real time values&lt;br&gt;of given ticker" style="text;html=1;resizable=0;autosize=1;align=center;verticalAlign=middle;points=[];fillColor=#f5f5f5;strokeColor=#666666;rounded=0;fontColor=#333333;" vertex="1" parent="1">
                    <mxGeometry x="130" y="570" width="100" height="30" as="geometry"/>
                </mxCell>
                <mxCell id="44" value="Request older values&lt;br&gt;&amp;nbsp;of given ticker" style="text;html=1;resizable=0;autosize=1;align=center;verticalAlign=middle;points=[];fillColor=#f5f5f5;strokeColor=#666666;rounded=0;fontColor=#333333;" vertex="1" parent="1">
                    <mxGeometry x="300" y="265" width="130" height="30" as="geometry"/>
                </mxCell>
                <mxCell id="45" value="Request older values&lt;br&gt;&amp;nbsp;of given ticker" style="text;html=1;resizable=0;autosize=1;align=center;verticalAlign=middle;points=[];fillColor=#f5f5f5;strokeColor=#666666;rounded=0;fontColor=#333333;" vertex="1" parent="1">
                    <mxGeometry x="160" y="235" width="130" height="30" as="geometry"/>
                </mxCell>
                <mxCell id="46" value="Old values of given ticker" style="text;html=1;resizable=0;autosize=1;align=center;verticalAlign=middle;points=[];fillColor=#f5f5f5;strokeColor=#666666;rounded=0;fontColor=#333333;" vertex="1" parent="1">
                    <mxGeometry x="290" y="320" width="150" height="20" as="geometry"/>
                </mxCell>
                <mxCell id="23" style="edgeStyle=none;html=1;exitX=1.2;exitY=0.102;exitDx=0;exitDy=0;entryX=-0.2;entryY=0.174;entryDx=0;entryDy=0;exitPerimeter=0;entryPerimeter=0;" edge="1" parent="1">
                    <mxGeometry relative="1" as="geometry">
                        <mxPoint x="134" y="250" as="sourcePoint"/>
                        <mxPoint x="280" y="281.67999999999995" as="targetPoint"/>
                    </mxGeometry>
                </mxCell>
                <mxCell id="24" style="edgeStyle=none;html=1;exitX=1.2;exitY=0.102;exitDx=0;exitDy=0;entryX=-0.2;entryY=0.174;entryDx=0;entryDy=0;exitPerimeter=0;entryPerimeter=0;" edge="1" parent="1">
                    <mxGeometry relative="1" as="geometry">
                        <mxPoint x="294" y="285" as="sourcePoint"/>
                        <mxPoint x="440" y="316.67999999999995" as="targetPoint"/>
                    </mxGeometry>
                </mxCell>
            </root>
        </mxGraphModel>
    </diagram>
</mxfile>